<svg id="Capa_1" enable-background="new 0 0 511.59 511.59" height="512" viewBox="0 0 511.59 511.59" width="512" xmlns="http://www.w3.org/2000/svg"><g><path d="m461.753 178.427h-39.576v-118.16c3.922-1.819 6.429-5.493 6.429-9.733 0-5.024-3.512-9.265-8.738-10.551l-161.007-39.613c-2.006-.493-4.126-.494-6.13-.001l-161.008 39.614c-5.227 1.286-8.738 5.526-8.738 10.551s3.512 9.265 8.738 10.551l35.31 8.687v108.656h-77.196c-16.434 0-29.804 13.37-29.804 29.804v12.747c0 4.143 3.357 7.5 7.5 7.5s7.5-3.357 7.5-7.5v-12.747c0-8.163 6.641-14.804 14.804-14.804h357.34v10.381h-.103c-11.093 0-20.118 9.024-20.118 20.117v21.481c0 6.662 5.42 12.082 12.081 12.082h31.278c6.661 0 12.081-5.42 12.081-12.082v-21.481c0-11.093-9.024-20.117-20.117-20.117h-.103v-10.381h39.576c8.163 0 14.804 6.641 14.804 14.804v92.807c0 4.522-3.05 8.506-7.415 9.687l-33.58 9.083v-14.385c0-16.197-13.178-29.375-29.375-29.375h-44.612c-16.197 0-29.375 13.178-29.375 29.375v42.345l-58.808 15.907c-11.513 3.114-23.681 3.114-35.193 0l-57.808-15.638v-42.614c0-16.197-13.178-29.375-29.375-29.375h-44.612c-16.197 0-29.375 13.178-29.375 29.375v14.655l-34.58-9.354c-4.365-1.181-7.415-5.164-7.415-9.687v-48.098c0-4.143-3.357-7.5-7.5-7.5s-7.5 3.357-7.5 7.5v48.098c0 10.78 6.954 20.318 17.074 23.717v144.339c0 19.047 15.495 34.542 34.541 34.542h21.404c3.126 4.782 8.519 7.955 14.646 7.955h42.021c6.127 0 11.52-3.173 14.646-7.955h183.859c3.126 4.782 8.519 7.955 14.646 7.955h42.021c6.128 0 11.521-3.173 14.646-7.955h20.404c19.046 0 34.541-15.495 34.541-34.542v-144.34c10.12-3.399 17.074-12.936 17.074-23.717v-92.807c.001-16.433-13.369-29.803-29.803-29.803zm-34.356 45.498v18.563h-25.44v-18.563c0-2.821 2.296-5.117 5.118-5.117h15.205c2.821 0 5.117 2.296 5.117 5.117zm-174.676-123.23c1.007.249 2.043.374 3.077.374 1.031 0 2.062-.124 3.061-.371l33.468-8.234c4.022-.99 6.48-5.053 5.491-9.075-.989-4.021-5.052-6.477-9.075-5.491l-32.947 8.106-144.169-35.47 144.169-35.47 144.168 35.47-79.927 19.664c-4.022.99-6.48 5.053-5.491 9.075.989 4.021 5.054 6.477 9.075 5.491l45.938-11.302v65.232h-227.527v-65.232zm-110.689 53h227.525v24.732h-227.525zm242.526 24.732v-108.656l22.619-5.565v114.221zm-37.359 126.995c0-7.927 6.448-14.375 14.375-14.375h44.612c7.927 0 14.375 6.448 14.375 14.375v56.447c0 1.4-1.14 2.54-2.54 2.54h-68.281c-1.401 0-2.541-1.14-2.541-2.54zm-255.171 0c0-7.927 6.448-14.375 14.375-14.375h44.612c7.927 0 14.375 6.448 14.375 14.375v56.447c0 1.4-1.14 2.54-2.541 2.54h-3.135-62.011-3.135c-1.4 0-2.54-1.14-2.54-2.54zm-39.92 163.671v-140.217l24.921 6.741v26.252c0 8.163 5.612 15.02 13.175 16.968v109.798h-18.555c-10.776 0-19.541-8.767-19.541-19.542zm97.612 27.497h-42.021c-1.376 0-2.496-1.12-2.496-2.496v-114.685h47.012v114.685c0 1.376-1.119 2.496-2.495 2.496zm255.171 0h-42.021c-1.376 0-2.495-1.12-2.495-2.496v-69.062c0-4.143-3.357-7.5-7.5-7.5s-7.5 3.357-7.5 7.5v63.603h-178.16v-109.798c7.036-1.812 12.381-7.873 13.09-15.284l53.977 14.602c7.037 1.903 14.274 2.854 21.513 2.854s14.476-.951 21.513-2.854l54.963-14.867c.607 7.53 5.984 13.716 13.104 15.55v14.233c0 4.143 3.357 7.5 7.5 7.5s7.5-3.357 7.5-7.5v-13.661h47.012v114.685c0 1.375-1.12 2.495-2.496 2.495zm35.051-7.955h-17.555v-109.798c7.563-1.948 13.175-8.805 13.175-16.968v-26.522l23.921-6.471v140.217c0 10.775-8.766 19.542-19.541 19.542z"/><path d="m128.709 351.698c13.218 0 23.971-10.753 23.971-23.97 0-13.218-10.753-23.971-23.971-23.971-13.217 0-23.97 10.753-23.97 23.971s10.753 23.97 23.97 23.97zm0-32.94c4.946 0 8.971 4.024 8.971 8.971s-4.024 8.97-8.971 8.97-8.97-4.023-8.97-8.97 4.024-8.971 8.97-8.971z"/><path d="m383.881 351.698c13.217 0 23.97-10.753 23.97-23.97 0-13.218-10.753-23.971-23.97-23.971-13.218 0-23.971 10.753-23.971 23.971s10.753 23.97 23.971 23.97zm0-32.94c4.946 0 8.97 4.024 8.97 8.971s-4.023 8.97-8.97 8.97-8.971-4.023-8.971-8.97 4.025-8.971 8.971-8.971z"/><circle cx="255.795" cy="299.567" r="10"/></g></svg>